<?xml version="1.0" encoding="UTF-8" standalone="no"?>
<!-- Uploaded to: SVG Repo, www.svgrepo.com, Transformed by: SVG Repo Mixer Tools -->

<svg
   fill="#000000"
   height="800px"
   width="800px"
   version="1.1"
   id="Layer_1"
   viewBox="0 0 510.503 510.503"
   xml:space="preserve"
   transform="matrix(-1, 0, 0, 1, 0, 0)"
   sodipodi:docname="driver.svg"
   inkscape:version="1.4.2 (f4327f4, 2025-05-13)"
   xmlns:inkscape="http://www.inkscape.org/namespaces/inkscape"
   xmlns:sodipodi="http://sodipodi.sourceforge.net/DTD/sodipodi-0.dtd"
   xmlns="http://www.w3.org/2000/svg"
   xmlns:svg="http://www.w3.org/2000/svg"><defs
   id="defs11" /><sodipodi:namedview
   id="namedview11"
   pagecolor="#ffffff"
   bordercolor="#000000"
   borderopacity="0.25"
   inkscape:showpageshadow="2"
   inkscape:pageopacity="0.0"
   inkscape:pagecheckerboard="0"
   inkscape:deskcolor="#d1d1d1"
   inkscape:zoom="0.7325"
   inkscape:cx="400"
   inkscape:cy="400"
   inkscape:window-width="1440"
   inkscape:window-height="830"
   inkscape:window-x="389"
   inkscape:window-y="1075"
   inkscape:window-maximized="1"
   inkscape:current-layer="Layer_1" />

<g
   id="SVGRepo_bgCarrier"
   stroke-width="0" />

<g
   id="SVGRepo_tracerCarrier"
   stroke-linecap="round"
   stroke-linejoin="round" />

<g
   id="SVGRepo_iconCarrier"
   transform="matrix(-1,0,0,1,510.503,0)"> <g
   id="g11"> <g
   id="g10"> <g
   id="g9"> <path
   d="m 500.504,248.069 h -16.442 l -34.373,-67.842 c -0.08,-0.158 -0.165,-0.314 -0.253,-0.469 -5.045,-8.767 -11.887,-16.168 -19.924,-21.839 0.26,-0.891 0.406,-1.831 0.406,-2.805 v -25.027 c 0,-23.287 -18.946,-42.233 -42.233,-42.233 h -51.251 c -28.864,0 -57.039,5.562 -83.742,16.53 L 200.39,125.87 c -9.125,3.749 -14.165,13.127 -12.254,22.806 0.306,1.551 0.791,3.017 1.402,4.402 -11.362,3.726 -21.513,8.759 -30.196,15.053 -23.174,16.798 -35.423,42.116 -35.423,73.219 v 6.72 H 69.798 c -30.394,0 -56.298,19.535 -65.854,46.703 -0.812,1.34 -1.316,2.883 -1.42,4.538 C 0.891,305.223 0,311.441 0,317.866 v 46.43 c 0,5.522 4.477,10 10,10 h 44.294 c 4.967,27.457 29.028,48.353 57.894,48.353 28.866,0 52.927,-20.896 57.894,-48.353 h 171.336 c 4.967,27.457 29.028,48.353 57.894,48.353 28.866,0 52.927,-20.896 57.894,-48.353 h 43.297 c 5.523,0 10,-4.478 10,-10 V 258.069 c 0.001,-5.523 -4.476,-10 -9.999,-10 z m -68.529,-58.555 29.667,58.554 h -56.723 v -80.354 c 11.276,3.652 20.97,11.35 27.056,21.8 z M 207.744,144.493 c 0.043,-0.028 0.121,-0.072 0.247,-0.124 l 52.302,-21.486 c 24.279,-9.974 49.897,-15.03 76.142,-15.03 h 51.251 c 12.26,0 22.233,9.974 22.233,22.233 v 15.027 H 208.138 c -0.128,0 -0.214,-0.01 -0.251,-0.01 -0.007,0 -0.013,0 -0.016,0.001 -0.096,-0.137 -0.158,-0.441 -0.127,-0.611 z m 177.175,20.847 v 82.729 h -134 V 165.34 Z m -241,76.008 c 0,-61.03 54.692,-73.569 87,-75.643 v 82.362 h -87 z m 7.11,122.872 c -0.228,21.228 -17.56,38.43 -38.841,38.43 -21.281,0 -38.612,-17.202 -38.84,-38.43 -0.197,-21.291 17.511,-39.272 38.84,-39.272 21.409,0 38.827,17.406 38.85,38.809 -0.005,0.141 -0.009,0.281 -0.011,0.423 0,0.012 0.002,0.025 0.002,0.04 z m 248.286,38.428 c -21.153,0 -38.397,-16.996 -38.828,-38.049 0.053,5.153 0.112,11.324 -0.014,-0.381 -0.064,-6.83 -0.034,-4.241 0.005,-0.464 0.048,-16.158 10.364,-30.808 25.497,-36.449 4.241,-1.581 8.817,-2.359 13.339,-2.359 16.29,0 31.225,10.589 36.648,25.948 1.51,4.277 2.235,8.791 2.193,13.324 -0.228,21.229 -17.559,38.43 -38.84,38.43 z m 91.189,-48.352 h -33.107 c -3.645,-22.362 -20.479,-41.038 -42.254,-47.175 -6.063,-1.709 -12.424,-2.407 -18.713,-2.101 -21.233,1.013 -40.631,13.935 -49.992,32.976 -2.524,5.134 -4.289,10.653 -5.21,16.3 H 170.273 C 165.499,325.009 139.586,303.75 109.306,305.02 81.67,306.179 58.503,327.311 54.104,354.296 H 20 v -15.444 h 14.425 c 5.523,0 10,-4.478 10,-10 0,-5.522 -4.477,-10 -10,-10 H 20 v -0.985 c 0,-2.698 0.223,-5.343 0.638,-7.926 h 13.787 c 5.523,0 10,-4.478 10,-10 0,-5.522 -4.477,-10 -10,-10 h -5.836 c 8.967,-13.19 24.092,-21.873 41.209,-21.873 h 64.121 107 154 83 12.585 v 86.228 z"
   id="path1" /> <path
   d="m 360.473,364.218 c 10e-4,0.128 0.011,0.254 0.014,0.381 -0.003,-0.286 -0.006,-0.569 -0.009,-0.846 0,0.156 -0.006,0.31 -0.005,0.465 z"
   id="path2" /> <path
   d="m 461.125,277.853 h -43.867 c -5.523,0 -10,4.478 -10,10 0,5.522 4.477,10 10,10 h 43.867 c 5.523,0 10,-4.478 10,-10 0,-5.523 -4.477,-10 -10,-10 z"
   id="path3" /> <path
   d="M 371.398,277.853 H 160.042 c -5.523,0 -10,4.478 -10,10 0,5.522 4.477,10 10,10 h 211.355 c 5.523,0 10,-4.478 10,-10 0,-5.523 -4.476,-10 -9.999,-10 z"
   id="path4" /> <path
   d="m 131.729,353.798 c -0.889,0 -1.746,0.127 -2.566,0.345 -4.277,1.135 -7.434,5.021 -7.434,9.655 0,5.261 -4.28,9.541 -9.541,9.541 -4.634,0 -8.521,3.157 -9.655,7.434 -0.218,0.82 -0.345,1.677 -0.345,2.566 0,5.522 4.477,10 10,10 16.289,0 29.541,-13.252 29.541,-29.541 0,-5.523 -4.477,-10 -10,-10 z"
   id="path5" /> <path
   d="m 112.188,354.257 c 4.634,0 8.521,-3.157 9.655,-7.435 0.217,-0.82 0.345,-1.677 0.345,-2.565 0,-5.522 -4.477,-10 -10,-10 -16.289,0 -29.541,13.252 -29.541,29.54 0,5.522 4.477,10 10,10 0.889,0 1.745,-0.127 2.566,-0.345 4.278,-1.134 7.434,-5.021 7.434,-9.655 10e-4,-5.261 4.281,-9.54 9.541,-9.54 z"
   id="path6" /> <path
   d="m 418.854,353.798 c -0.889,0 -1.746,0.127 -2.566,0.345 -4.277,1.135 -7.434,5.021 -7.434,9.655 0,5.261 -4.28,9.541 -9.541,9.541 -4.634,0 -8.521,3.157 -9.655,7.434 -0.218,0.82 -0.345,1.677 -0.345,2.566 0,5.522 4.477,10 10,10 16.289,0 29.541,-13.252 29.541,-29.541 0,-5.523 -4.478,-10 -10,-10 z"
   id="path7" /> <path
   d="m 399.313,354.257 c 4.634,0 8.521,-3.157 9.655,-7.435 0.217,-0.82 0.345,-1.677 0.345,-2.565 0,-5.522 -4.477,-10 -10,-10 -16.289,0 -29.541,13.252 -29.541,29.54 0,5.522 4.477,10 10,10 0.889,0 1.746,-0.127 2.566,-0.345 4.277,-1.134 7.434,-5.021 7.434,-9.655 0,-5.261 4.28,-9.54 9.541,-9.54 z"
   id="path8" /> <path
   d="m 277.919,198.251 h 43.867 c 5.523,0 10,-4.478 10,-10 0,-5.522 -4.477,-10 -10,-10 h -43.867 c -5.523,0 -10,4.478 -10,10 0,5.521 4.477,10 10,10 z"
   id="path9" /> </g> </g> </g> </g>

</svg>
