<?xml version="1.0" encoding="UTF-8" standalone="no"?>
<!-- Uploaded to: SVG Repo, www.svgrepo.com, Transformed by: SVG Repo Mixer Tools -->

<svg
   fill="#000000"
   height="800px"
   width="800px"
   version="1.1"
   id="_x31_"
   viewBox="0 0 128 128"
   xml:space="preserve"
   transform="matrix(-1, 0, 0, 1, 0, 0)"
   sodipodi:docname="passenger.svg"
   inkscape:version="1.4.2 (f4327f4, 2025-05-13)"
   xmlns:inkscape="http://www.inkscape.org/namespaces/inkscape"
   xmlns:sodipodi="http://sodipodi.sourceforge.net/DTD/sodipodi-0.dtd"
   xmlns="http://www.w3.org/2000/svg"
   xmlns:svg="http://www.w3.org/2000/svg"><defs
   id="defs4" /><sodipodi:namedview
   id="namedview4"
   pagecolor="#ffffff"
   bordercolor="#000000"
   borderopacity="0.25"
   inkscape:showpageshadow="2"
   inkscape:pageopacity="0.0"
   inkscape:pagecheckerboard="0"
   inkscape:deskcolor="#d1d1d1"
   inkscape:zoom="0.7325"
   inkscape:cx="400"
   inkscape:cy="400"
   inkscape:window-width="1440"
   inkscape:window-height="830"
   inkscape:window-x="389"
   inkscape:window-y="1075"
   inkscape:window-maximized="1"
   inkscape:current-layer="_x31_" />

<g
   id="SVGRepo_bgCarrier"
   stroke-width="0" />

<g
   id="SVGRepo_tracerCarrier"
   stroke-linecap="round"
   stroke-linejoin="round" />

<g
   id="SVGRepo_iconCarrier"
   transform="matrix(-1,0,0,1,126.86729,0)"> <g
   id="g4"> <circle
   transform="matrix(0.2588,-0.9659,0.9659,0.2588,-9.6134,69.5531)"
   cx="40.5"
   cy="41"
   id="ellipse1"
   r="8.8999996" /> <path
   d="m 60.9,59.6 c -1.5,-0.4 -3,0.4 -3.5,2 l -7.5,27.7 c -1.2,4.9 -5.5,8.5 -10.4,8.9 -0.4,0 -1,0 -1,0 H 27.7 c -1.6,0 -2.8,1.2 -2.8,2.8 0.1,1.7 1.3,2.9 2.9,2.9 h 10.8 c 0,0 0.8,0 1.5,-0.1 7.4,-0.6 13.5,-5.8 15.4,-13.1 L 62.9,63 c 0.4,-1.4 -0.5,-2.9 -2,-3.4 z"
   id="path1" /> <path
   d="m 38.9,93.7 c 3.4,-0.2 6.1,-2.6 6.9,-5.8 l 7.7,-28.5 c 0.7,-2.7 -0.9,-5.5 -3.6,-6.1 -0.2,0 -1.1,-0.1 -1.1,-0.1 -7.2,-0.7 -14.1,3.8 -16,11.1 0,0.1 -0.3,1.2 -0.4,1.7 -1.5,5.7 -2.3,11.3 -2.7,16.9 H 14.8 c -1.3,0 -2.8,0.6 -3.9,1.7 -1.1,1 -0.7,4.5 -0.7,5.9 v 25.7 c 0,3.1 1.5,3.6 4.6,3.6 3.1,0 5.6,-2.5 5.6,-5.6 V 93.7 h 17.8 z"
   id="path2" /> <circle
   transform="matrix(0.2588,-0.9659,0.9659,0.2588,30.2257,121.4718)"
   cx="94.300003"
   cy="41"
   id="ellipse2"
   r="8.8999996" /> <path
   d="m 114.6,59.6 c -1.5,-0.4 -3,0.4 -3.5,2 l -7.5,27.7 c -1.2,4.9 -5.5,8.5 -10.4,8.9 -0.4,0 -1,0 -1,0 H 81.4 c -1.6,0 -2.8,1.2 -2.8,2.8 0.1,1.7 1.3,2.9 2.9,2.9 h 10.8 c 0,0 0.8,0 1.5,-0.1 7.4,-0.6 13.5,-5.8 15.4,-13.1 L 116.6,63 c 0.5,-1.4 -0.4,-2.9 -2,-3.4 z"
   id="path3" /> <path
   d="m 92.6,93.7 c 3.4,-0.2 6.1,-2.6 6.9,-5.8 l 7.7,-28.5 c 0.7,-2.7 -0.9,-5.5 -3.6,-6.1 -0.2,0 -1.1,-0.1 -1.1,-0.1 -7.2,-0.7 -14.1,3.8 -16,11.1 0,0.1 -0.3,1.2 -0.4,1.7 -1.5,5.7 -2.3,11.3 -2.7,16.9 H 68.6 c -1.3,0 -2.8,0.6 -3.9,1.7 -1.1,1 -1.7,2.5 -1.7,3.9 v 25.7 c 0,3.1 2.5,5.6 5.6,5.6 3.1,0 5.6,-2.5 5.6,-5.6 V 93.7 H 92 Z"
   id="path4" /> </g> </g>

</svg>
